{
  "accessors": [
    {
      "bufferView": 2,
      "componentType": 5126,
      "count": 1074,
      "max": [
        0.4590466022491455,
        0.3148161470890045,
        -0.06020019203424454
      ],
      "min": [
        -0.25904667377471924,
        0.04450831189751625,
        -0.08236594498157501
      ],
      "type": "VEC3"
    },
    {
      "bufferView": 2,
      "byteOffset": 12888,
      "componentType": 5126,
      "count": 1074,
      "max": [
        0.44520658254623413,
        0.46599727869033813,
        1.0
      ],
      "min": [
        -0.44520658254623413,
        -0.4003571569919586,
        0.8828114867210388
      ],
      "type": "VEC3"
    },
    {
      "bufferView": 1,
      "componentType": 5126,
      "count": 1074,
      "max": [
        0.8981310129165649,
        0.9181547164916992
      ],
      "min": [
        0.17627175152301788,
        0.08186434954404831
      ],
      "type": "VEC2"
    },
    {
      "bufferView": 0,
      "componentType": 5125,
      "count": 6144,
      "type": "SCALAR"
    },
    {
      "bufferView": 2,
      "byteOffset": 25776,
      "componentType": 5126,
      "count": 6528,
      "max": [
        0.4740770161151886,
        0.3342851400375366,
        -0.0926741361618042
      ],
      "min": [
        -0.27407702803611755,
        0.02302849479019642,
        -0.13589337468147278
      ],
      "type": "VEC3"
    },
    {
      "bufferView": 2,
      "byteOffset": 104112,
      "componentType": 5126,
      "count": 6528,
      "max": [
        0.9994646906852722,
        0.9984691143035889,
        0.86787348985672
      ],
      "min": [
        -0.9994651079177856,
        -0.9996567368507385,
        -0.9706999063491821
      ],
      "type": "VEC3"
    },
    {
      "bufferView": 1,
      "byteOffset": 8592,
      "componentType": 5126,
      "count": 6528,
      "max": [
        0.7987593412399292,
        0.9064541459083557
      ],
      "min": [
        0.16206468641757965,
        0.09379751980304718
      ],
      "type": "VEC2"
    },
    {
      "bufferView": 0,
      "byteOffset": 24576,
      "componentType": 5125,
      "count": 36864,
      "type": "SCALAR"
    },
    {
      "bufferView": 2,
      "byteOffset": 182448,
      "componentType": 5126,
      "count": 1384,
      "max": [
        0.6075694561004639,
        0.15594172477722168,
        -0.06443154811859131
      ],
      "min": [
        -0.1575688272714615,
        -0.1559421420097351,
        -0.13419829308986664
      ],
      "type": "VEC3"
    },
    {
      "bufferView": 2,
      "byteOffset": 199056,
      "componentType": 5126,
      "count": 1384,
      "max": [
        0.9217451214790344,
        0.9231794476509094,
        -0.3843693733215332
      ],
      "min": [
        -0.9217475652694702,
        -0.9231752157211304,
        -0.9998817443847656
      ],
      "type": "VEC3"
    },
    {
      "bufferView": 1,
      "byteOffset": 60816,
      "componentType": 5126,
      "count": 1384,
      "max": [
        0.9247965216636658,
        0.9069221615791321
      ],
      "min": [
        0.07519972324371338,
        0.09307582676410675
      ],
      "type": "VEC2"
    },
    {
      "bufferView": 0,
      "byteOffset": 172032,
      "componentType": 5125,
      "count": 4704,
      "type": "SCALAR"
    },
    {
      "bufferView": 2,
      "byteOffset": 215664,
      "componentType": 5126,
      "count": 257,
      "max": [
        0.012500077486038208,
        0.001046597957611084,
        0.041725654155015945
      ],
      "min": [
        -0.01288556307554245,
        -0.025000015273690224,
        -0.050000015646219254
      ],
      "type": "VEC3"
    },
    {
      "bufferView": 2,
      "byteOffset": 218748,
      "componentType": 5126,
      "count": 257,
      "max": [
        1.0,
        1.0,
        1.0
      ],
      "min": [
        -1.0,
        -1.0,
        -1.0
      ],
      "type": "VEC3"
    },
    {
      "bufferView": 1,
      "byteOffset": 71888,
      "componentType": 5126,
      "count": 257,
      "max": [
        0.9676670432090759,
        0.9999985694885254
      ],
      "min": [
        0.032332465052604675,
        0.03662392497062683
      ],
      "type": "VEC2"
    },
    {
      "bufferView": 0,
      "byteOffset": 190848,
      "componentType": 5125,
      "count": 1104,
      "type": "SCALAR"
    },
    {
      "bufferView": 2,
      "byteOffset": 221832,
      "componentType": 5126,
      "count": 53,
      "max": [
        -0.009856879711151123,
        0.0010464191436767578,
        0.0401730090379715
      ],
      "min": [
        -0.01250001322478056,
        -0.025000009685754776,
        -0.048434384167194366
      ],
      "type": "VEC3"
    },
    {
      "bufferView": 2,
      "byteOffset": 222468,
      "componentType": 5126,
      "count": 53,
      "max": [
        5.637773028865922e-06,
        1.0,
        1.0
      ],
      "min": [
        -1.0,
        -1.0,
        -1.0
      ],
      "type": "VEC3"
    },
    {
      "bufferView": 1,
      "byteOffset": 73944,
      "componentType": 5126,
      "count": 53,
      "max": [
        0.7375555038452148,
        0.959132194519043
      ],
      "min": [
        0.2624281644821167,
        0.04086561128497124
      ],
      "type": "VEC2"
    },
    {
      "bufferView": 0,
      "byteOffset": 195264,
      "componentType": 5125,
      "count": 264,
      "type": "SCALAR"
    },
    {
      "bufferView": 2,
      "byteOffset": 223104,
      "componentType": 5126,
      "count": 235,
      "max": [
        0.015000388026237488,
        0.016199151054024696,
        0.04253029078245163
      ],
      "min": [
        -0.01500039640814066,
        -0.024999991059303284,
        -0.04366195574402809
      ],
      "type": "VEC3"
    },
    {
      "bufferView": 2,
      "byteOffset": 225924,
      "componentType": 5126,
      "count": 235,
      "max": [
        9.559048521623481e-07,
        1.0,
        1.0
      ],
      "min": [
        -1.0,
        -1.0,
        -1.0
      ],
      "type": "VEC3"
    },
    {
      "bufferView": 1,
      "byteOffset": 74368,
      "componentType": 5126,
      "count": 235,
      "max": [
        0.8313357830047607,
        0.8919928073883057
      ],
      "min": [
        0.16999201476573944,
        0.10886012017726898
      ],
      "type": "VEC2"
    },
    {
      "bufferView": 0,
      "byteOffset": 196320,
      "componentType": 5125,
      "count": 1056,
      "type": "SCALAR"
    },
    {
      "bufferView": 2,
      "byteOffset": 228744,
      "componentType": 5126,
      "count": 715,
      "max": [
        0.03100975602865219,
        0.031009754166007042,
        -0.08667915314435959
      ],
      "min": [
        -0.03100975602865219,
        -0.031009754166007042,
        -0.10269127786159515
      ],
      "type": "VEC3"
    },
    {
      "bufferView": 2,
      "byteOffset": 237324,
      "componentType": 5126,
      "count": 715,
      "max": [
        0.9907060861587524,
        0.9907060861587524,
        0.999333381652832
      ],
      "min": [
        -0.9907060861587524,
        -0.9907060861587524,
        -0.9884039163589478
      ],
      "type": "VEC3"
    },
    {
      "bufferView": 1,
      "byteOffset": 76248,
      "componentType": 5126,
      "count": 715,
      "max": [
        1.0,
        0.996999979019165
      ],
      "min": [
        0.0,
        0.003000000026077032
      ],
      "type": "VEC2"
    },
    {
      "bufferView": 0,
      "byteOffset": 200544,
      "componentType": 5125,
      "count": 3840,
      "type": "SCALAR"
    },
    {
      "bufferView": 2,
      "byteOffset": 245904,
      "componentType": 5126,
      "count": 114,
      "max": [
        0.017082054167985916,
        0.016906850039958954,
        -0.06785445660352707
      ],
      "min": [
        -0.017082056030631065,
        -0.016906850039958954,
        -0.07923011481761932
      ],
      "type": "VEC3"
    },
    {
      "bufferView": 2,
      "byteOffset": 247272,
      "componentType": 5126,
      "count": 114,
      "max": [
        0.9771873354911804,
        0.9776374101638794,
        0.9999837279319763
      ],
      "min": [
        -0.9771873354911804,
        -0.9776374101638794,
        0.21029773354530334
      ],
      "type": "VEC3"
    },
    {
      "bufferView": 1,
      "byteOffset": 81968,
      "componentType": 5126,
      "count": 114,
      "max": [
        0.8795454502105713,
        0.8605984449386597
      ],
      "min": [
        0.12045405805110931,
        0.13940121233463287
      ],
      "type": "VEC2"
    },
    {
      "bufferView": 0,
      "byteOffset": 215904,
      "componentType": 5125,
      "count": 432,
      "type": "SCALAR"
    },
    {
      "bufferView": 2,
      "byteOffset": 248640,
      "componentType": 5126,
      "count": 13366,
      "max": [
        0.07583905756473541,
        0.14312578737735748,
        -0.011578412726521492
      ],
      "min": [
        -0.45193660259246826,
        -0.13211078941822052,
        -0.05423259735107422
      ],
      "type": "VEC3"
    },
    {
      "bufferView": 2,
      "byteOffset": 409032,
      "componentType": 5126,
      "count": 13366,
      "max": [
        1.0,
        0.9787973165512085,
        0.001112184370867908
      ],
      "min": [
        -1.0,
        -0.9958332180976868,
        -0.9999990463256836
      ],
      "type": "VEC3"
    },
    {
      "bufferView": 1,
      "byteOffset": 82880,
      "componentType": 5126,
      "count": 13366,
      "max": [
        0.8038089275360107,
        0.955064058303833
      ],
      "min": [
        0.19707626104354858,
        0.04762512072920799
      ],
      "type": "VEC2"
    },
    {
      "bufferView": 0,
      "byteOffset": 217632,
      "componentType": 5125,
      "count": 78336,
      "type": "SCALAR"
    },
    {
      "bufferView": 2,
      "byteOffset": 569424,
      "componentType": 5126,
      "count": 6978,
      "max": [
        0.39357316493988037,
        0.10072808712720871,
        -0.03746504336595535
      ],
      "min": [
        -0.1065887063741684,
        -0.10046333074569702,
        -0.05530979484319687
      ],
      "type": "VEC3"
    },
    {
      "bufferView": 2,
      "byteOffset": 653160,
      "componentType": 5126,
      "count": 6978,
      "max": [
        1.0,
        0.9999991059303284,
        0.0001830091350711882
      ],
      "min": [
        -1.0,
        -1.0,
        -0.9999998807907104
      ],
      "type": "VEC3"
    },
    {
      "bufferView": 1,
      "byteOffset": 189808,
      "componentType": 5126,
      "count": 6978,
      "max": [
        0.7660031914710999,
        0.9455655813217163
      ],
      "min": [
        0.23602262139320374,
        0.054434679448604584
      ],
      "type": "VEC2"
    },
    {
      "bufferView": 0,
      "byteOffset": 530976,
      "componentType": 5125,
      "count": 36864,
      "type": "SCALAR"
    },
    {
      "bufferView": 2,
      "byteOffset": 736896,
      "componentType": 5126,
      "count": 108,
      "max": [
        0.007418045308440924,
        0.0,
        0.00747738778591156
      ],
      "min": [
        -0.007418045308440924,
        -0.0012614390579983592,
        -0.007418049033731222
      ],
      "type": "VEC3"
    },
    {
      "bufferView": 2,
      "byteOffset": 738192,
      "componentType": 5126,
      "count": 108,
      "max": [
        1.0,
        1.0,
        0.9988951086997986
      ],
      "min": [
        -1.0,
        -0.04698997363448143,
        -0.9988955855369568
      ],
      "type": "VEC3"
    },
    {
      "bufferView": 1,
      "byteOffset": 245632,
      "componentType": 5126,
      "count": 108,
      "max": [
        0.8011299967765808,
        0.8242259621620178
      ],
      "min": [
        0.19903850555419922,
        0.17768269777297974
      ],
      "type": "VEC2"
    },
    {
      "bufferView": 0,
      "byteOffset": 678432,
      "componentType": 5125,
      "count": 480,
      "type": "SCALAR"
    },
    {
      "bufferView": 2,
      "byteOffset": 739488,
      "componentType": 5126,
      "count": 103,
      "max": [
        0.017182089388370514,
        0.015427391044795513,
        -0.11545995622873306
      ],
      "min": [
        -0.016462702304124832,
        -0.018013691529631615,
        -0.12710225582122803
      ],
      "type": "VEC3"
    },
    {
      "bufferView": 2,
      "byteOffset": 740724,
      "componentType": 5126,
      "count": 103,
      "max": [
        0.9999906420707703,
        0.9987626075744629,
        1.0
      ],
      "min": [
        -0.9997752904891968,
        -0.9982789754867554,
        -0.27034246921539307
      ],
      "type": "VEC3"
    },
    {
      "bufferView": 1,
      "byteOffset": 246496,
      "componentType": 5126,
      "count": 103,
      "max": [
        0.8666610717773438,
        0.8592718243598938
      ],
      "min": [
        0.12588851153850555,
        0.13906297087669373
      ],
      "type": "VEC2"
    },
    {
      "bufferView": 0,
      "byteOffset": 680352,
      "componentType": 5125,
      "count": 480,
      "type": "SCALAR"
    },
    {
      "bufferView": 2,
      "byteOffset": 741960,
      "componentType": 5126,
      "count": 332,
      "max": [
        0.01732339896261692,
        0.2017962634563446,
        0.4503823518753052
      ],
      "min": [
        -0.02364455908536911,
        -0.018013691529631615,
        -0.12660259008407593
      ],
      "type": "VEC3"
    },
    {
      "bufferView": 2,
      "byteOffset": 745944,
      "componentType": 5126,
      "count": 332,
      "max": [
        0.9999906420707703,
        0.999852180480957,
        0.9990531206130981
      ],
      "min": [
        -0.999971866607666,
        -0.99873286485672,
        -0.8557884097099304
      ],
      "type": "VEC3"
    },
    {
      "bufferView": 1,
      "byteOffset": 247320,
      "componentType": 5126,
      "count": 332,
      "max": [
        0.8671442270278931,
        0.8601210713386536
      ],
      "min": [
        0.13150155544281006,
        0.13813824951648712
      ],
      "type": "VEC2"
    },
    {
      "bufferView": 0,
      "byteOffset": 682272,
      "componentType": 5125,
      "count": 1248,
      "type": "SCALAR"
    },
    {
      "bufferView": 2,
      "byteOffset": 749928,
      "componentType": 5126,
      "count": 382,
      "max": [
        0.02975418046116829,
        0.3988794982433319,
        1.0371719598770142
      ],
      "min": [
        -0.016695978119969368,
        -0.017402516677975655,
        -0.12740427255630493
      ],
      "type": "VEC3"
    },
    {
      "bufferView": 2,
      "byteOffset": 754512,
      "componentType": 5126,
      "count": 382,
      "max": [
        0.9999240040779114,
        0.9991098046302795,
        1.0
      ],
      "min": [
        -0.9999240040779114,
        -0.9988923668861389,
        -0.8950181603431702
      ],
      "type": "VEC3"
    },
    {
      "bufferView": 1,
      "byteOffset": 249976,
      "componentType": 5126,
      "count": 382,
      "max": [
        0.8560046553611755,
        0.854938268661499
      ],
      "min": [
        0.1419164538383484,
        0.14522939920425415
      ],
      "type": "VEC2"
    },
    {
      "bufferView": 0,
      "byteOffset": 687264,
      "componentType": 5125,
      "count": 1536,
      "type": "SCALAR"
    },
    {
      "bufferView": 2,
      "byteOffset": 759096,
      "componentType": 5126,
      "count": 341,
      "max": [
        0.07178132236003876,
        0.03809449076652527,
        0.014531761407852173
      ],
      "min": [
        -0.06532494723796844,
        -0.03570469841361046,
        -0.01213819906115532
      ],
      "type": "VEC3"
    },
    {
      "bufferView": 2,
      "byteOffset": 763188,
      "componentType": 5126,
      "count": 341,
      "max": [
        0.9999718070030212,
        0.9998759031295776,
        0.9998944997787476
      ],
      "min": [
        -0.9995705485343933,
        -0.9941591024398804,
        -0.9999113082885742
      ],
      "type": "VEC3"
    },
    {
      "bufferView": 1,
      "byteOffset": 253032,
      "componentType": 5126,
      "count": 341,
      "max": [
        0.9804527759552002,
        0.8982995748519897
      ],
      "min": [
        0.021160045638680458,
        0.07853084802627563
      ],
      "type": "VEC2"
    },
    {
      "bufferView": 0,
      "byteOffset": 693408,
      "componentType": 5125,
      "count": 1728,
      "type": "SCALAR"
    },
    {
      "bufferView": 2,
      "byteOffset": 767280,
      "componentType": 5126,
      "count": 116,
      "max": [
        0.5580124855041504,
        0.10855509340763092,
        0.02499997615814209
      ],
      "min": [
        -0.025000018998980522,
        -0.10750529170036316,
        -0.0249999538064003
      ],
      "type": "VEC3"
    },
    {
      "bufferView": 2,
      "byteOffset": 768672,
      "componentType": 5126,
      "count": 116,
      "max": [
        1.0,
        1.0,
        1.0
      ],
      "min": [
        -1.0,
        -1.0,
        -1.0
      ],
      "type": "VEC3"
    },
    {
      "bufferView": 1,
      "byteOffset": 255760,
      "componentType": 5126,
      "count": 116,
      "max": [
        0.9985604286193848,
        0.9816420078277588
      ],
      "min": [
        0.0014395862817764282,
        0.020816819742321968
      ],
      "type": "VEC2"
    },
    {
      "bufferView": 0,
      "byteOffset": 700320,
      "componentType": 5125,
      "count": 672,
      "type": "SCALAR"
    },
    {
      "bufferView": 2,
      "byteOffset": 770064,
      "componentType": 5126,
      "count": 266,
      "max": [
        0.06528639793395996,
        0.03529058024287224,
        0.013430017046630383
      ],
      "min": [
        -0.003740455023944378,
        -0.034992463886737823,
        -0.012162297032773495
      ],
      "type": "VEC3"
    },
    {
      "bufferView": 2,
      "byteOffset": 773256,
      "componentType": 5126,
      "count": 266,
      "max": [
        0.9995439052581787,
        0.9999439716339111,
        0.9998536705970764
      ],
      "min": [
        -0.9999376535415649,
        -0.9976707696914673,
        -0.999851644039154
      ],
      "type": "VEC3"
    },
    {
      "bufferView": 1,
      "byteOffset": 256688,
      "componentType": 5126,
      "count": 266,
      "max": [
        0.9420243501663208,
        0.9609684348106384
      ],
      "min": [
        0.05485949665307999,
        0.006756848655641079
      ],
      "type": "VEC2"
    },
    {
      "bufferView": 0,
      "byteOffset": 703008,
      "componentType": 5125,
      "count": 1344,
      "type": "SCALAR"
    },
    {
      "bufferView": 2,
      "byteOffset": 776448,
      "componentType": 5126,
      "count": 52,
      "max": [
        0.011065313592553139,
        0.010951818898320198,
        -0.059466052800416946
      ],
      "min": [
        -0.011065313592553139,
        -0.010951819829642773,
        -0.08148884773254395
      ],
      "type": "VEC3"
    },
    {
      "bufferView": 2,
      "byteOffset": 777072,
      "componentType": 5126,
      "count": 52,
      "max": [
        0.998907208442688,
        0.9989294409751892,
        1.0
      ],
      "min": [
        -0.998907208442688,
        -0.9989294409751892,
        -0.04673955217003822
      ],
      "type": "VEC3"
    },
    {
      "bufferView": 1,
      "byteOffset": 258816,
      "componentType": 5126,
      "count": 52,
      "max": [
        0.7459481954574585,
        0.8419827222824097
      ],
      "min": [
        0.2540518045425415,
        0.15801724791526794
      ],
      "type": "VEC2"
    },
    {
      "bufferView": 0,
      "byteOffset": 708384,
      "componentType": 5125,
      "count": 192,
      "type": "SCALAR"
    },
    {
      "bufferView": 2,
      "byteOffset": 777696,
      "componentType": 5126,
      "count": 57,
      "max": [
        0.011065313592553139,
        0.010951818898320198,
        -0.059466052800416946
      ],
      "min": [
        -0.011065313592553139,
        -0.010951819829642773,
        -0.08148884773254395
      ],
      "type": "VEC3"
    },
    {
      "bufferView": 2,
      "byteOffset": 778380,
      "componentType": 5126,
      "count": 57,
      "max": [
        0.998907208442688,
        0.9989294409751892,
        1.0
      ],
      "min": [
        -0.998907208442688,
        -0.9989294409751892,
        -0.04673955217003822
      ],
      "type": "VEC3"
    },
    {
      "bufferView": 1,
      "byteOffset": 259232,
      "componentType": 5126,
      "count": 57,
      "max": [
        0.7459482550621033,
        0.8419828414916992
      ],
      "min": [
        0.2540518045425415,
        0.15801729261875153
      ],
      "type": "VEC2"
    },
    {
      "bufferView": 0,
      "byteOffset": 709152,
      "componentType": 5125,
      "count": 192,
      "type": "SCALAR"
    },
    {
      "bufferView": 2,
      "byteOffset": 779064,
      "componentType": 5126,
      "count": 57,
      "max": [
        0.011065313592553139,
        0.010951818898320198,
        -0.059466052800416946
      ],
      "min": [
        -0.011065313592553139,
        -0.010951819829642773,
        -0.08148884773254395
      ],
      "type": "VEC3"
    },
    {
      "bufferView": 2,
      "byteOffset": 779748,
      "componentType": 5126,
      "count": 57,
      "max": [
        0.998907208442688,
        0.9989294409751892,
        1.0
      ],
      "min": [
        -0.998907208442688,
        -0.9989294409751892,
        -0.04673955217003822
      ],
      "type": "VEC3"
    },
    {
      "bufferView": 1,
      "byteOffset": 259688,
      "componentType": 5126,
      "count": 57,
      "max": [
        0.7459482550621033,
        0.8419828414916992
      ],
      "min": [
        0.2540518045425415,
        0.15801729261875153
      ],
      "type": "VEC2"
    },
    {
      "bufferView": 0,
      "byteOffset": 709920,
      "componentType": 5125,
      "count": 192,
      "type": "SCALAR"
    },
    {
      "bufferView": 2,
      "byteOffset": 780432,
      "componentType": 5126,
      "count": 657,
      "max": [
        0.01732339896261692,
        0.334089457988739,
        0.45135918259620667
      ],
      "min": [
        -0.13286378979682922,
        -0.19852983951568604,
        -0.12749789655208588
      ],
      "type": "VEC3"
    },
    {
      "bufferView": 2,
      "byteOffset": 788316,
      "componentType": 5126,
      "count": 657,
      "max": [
        0.9999906420707703,
        0.999852180480957,
        1.0
      ],
      "min": [
        -0.9997296333312988,
        -0.9982789754867554,
        -0.970060408115387
      ],
      "type": "VEC3"
    },
    {
      "bufferView": 1,
      "byteOffset": 260144,
      "componentType": 5126,
      "count": 657,
      "max": [
        0.8679962158203125,
        0.8594098687171936
      ],
      "min": [
        0.1317380666732788,
        0.13879799842834473
      ],
      "type": "VEC2"
    },
    {
      "bufferView": 0,
      "byteOffset": 710688,
      "componentType": 5125,
      "count": 2496,
      "type": "SCALAR"
    },
    {
      "bufferView": 2,
      "byteOffset": 796200,
      "componentType": 5126,
      "count": 518,
      "max": [
        0.22002702951431274,
        0.43876123428344727,
        1.1657650470733643
      ],
      "min": [
        -0.5942860841751099,
        -0.4097822904586792,
        -0.13076555728912354
      ],
      "type": "VEC3"
    },
    {
      "bufferView": 2,
      "byteOffset": 802416,
      "componentType": 5126,
      "count": 518,
      "max": [
        0.9999906420707703,
        0.9987626075744629,
        0.9995723366737366
      ],
      "min": [
        -0.9997752904891968,
        -0.9982789754867554,
        -0.994723379611969
      ],
      "type": "VEC3"
    },
    {
      "bufferView": 1,
      "byteOffset": 265400,
      "componentType": 5126,
      "count": 518,
      "max": [
        0.8716343641281128,
        0.8609992861747742
      ],
      "min": [
        0.13017234206199646,
        0.13733117282390594
      ],
      "type": "VEC2"
    },
    {
      "bufferView": 0,
      "byteOffset": 720672,
      "componentType": 5125,
      "count": 2496,
      "type": "SCALAR"
    },
    {
      "bufferView": 2,
      "byteOffset": 808632,
      "componentType": 5126,
      "count": 4334,
      "max": [
        0.7857605218887329,
        0.5630704760551453,
        0.7434273958206177
      ],
      "min": [
        0.08670953661203384,
        -0.5630694627761841,
        -0.5468176007270813
      ],
      "type": "VEC3"
    },
    {
      "bufferView": 2,
      "byteOffset": 860640,
      "componentType": 5126,
      "count": 4334,
      "max": [
        1.0,
        1.0,
        1.0
      ],
      "min": [
        -1.0,
        -1.0,
        -1.0
      ],
      "type": "VEC3"
    },
    {
      "bufferView": 1,
      "byteOffset": 269544,
      "componentType": 5126,
      "count": 4334,
      "max": [
        0.9441290497779846,
        0.9955480694770813
      ],
      "min": [
        0.04408513754606247,
        0.004452174995094538
      ],
      "type": "VEC2"
    },
    {
      "bufferView": 0,
      "byteOffset": 730656,
      "componentType": 5125,
      "count": 20256,
      "type": "SCALAR"
    },
    {
      "bufferView": 2,
      "byteOffset": 912648,
      "componentType": 5126,
      "count": 4145,
      "max": [
        1.0894341468811035,
        0.08492438495159149,
        0.09666109830141068
      ],
      "min": [
        -0.017481528222560883,
        -0.08813979476690292,
        -0.5562488436698914
      ],
      "type": "VEC3"
    },
    {
      "bufferView": 2,
      "byteOffset": 962388,
      "componentType": 5126,
      "count": 4145,
      "max": [
        0.9999598264694214,
        0.9991559386253357,
        0.9625461101531982
      ],
      "min": [
        -0.9999599456787109,
        -0.9995072484016418,
        -0.9997981190681458
      ],
      "type": "VEC3"
    },
    {
      "bufferView": 1,
      "byteOffset": 304216,
      "componentType": 5126,
      "count": 4145,
      "max": [
        0.966225802898407,
        0.9864417314529419
      ],
      "min": [
        0.017746442928910255,
        0.008972685784101486
      ],
      "type": "VEC2"
    },
    {
      "bufferView": 0,
      "byteOffset": 811680,
      "componentType": 5125,
      "count": 23040,
      "type": "SCALAR"
    },
    {
      "bufferView": 2,
      "byteOffset": 1012128,
      "componentType": 5126,
      "count": 6015,
      "max": [
        0.5892725586891174,
        0.3934972286224365,
        0.03938257694244385
      ],
      "min": [
        -0.38927286863327026,
        -0.09370117634534836,
        -0.27784600853919983
      ],
      "type": "VEC3"
    },
    {
      "bufferView": 2,
      "byteOffset": 1084308,
      "componentType": 5126,
      "count": 6015,
      "max": [
        0.999918520450592,
        0.9908779859542847,
        0.9999998807907104
      ],
      "min": [
        -0.999918520450592,
        -0.9989238381385803,
        -0.8818402886390686
      ],
      "type": "VEC3"
    },
    {
      "bufferView": 1,
      "byteOffset": 337376,
      "componentType": 5126,
      "count": 6015,
      "max": [
        0.7732570171356201,
        0.9238149523735046
      ],
      "min": [
        0.1659981906414032,
        0.0
      ],
      "type": "VEC2"
    },
    {
      "bufferView": 0,
      "byteOffset": 903840,
      "componentType": 5125,
      "count": 35328,
      "type": "SCALAR"
    },
    {
      "bufferView": 2,
      "byteOffset": 1156488,
      "componentType": 5126,
      "count": 4775,
      "max": [
        0.6276578307151794,
        0.5384023189544678,
        0.17926490306854248
      ],
      "min": [
        -0.4276577830314636,
        -0.14859797060489655,
        -0.06960497796535492
      ],
      "type": "VEC3"
    },
    {
      "bufferView": 2,
      "byteOffset": 1213788,
      "componentType": 5126,
      "count": 4775,
      "max": [
        0.999376118183136,
        0.999852180480957,
        0.9999669194221497
      ],
      "min": [
        -0.999376118183136,
        -0.9992362260818481,
        -0.9972286224365234
      ],
      "type": "VEC3"
    },
    {
      "bufferView": 1,
      "byteOffset": 385496,
      "componentType": 5126,
      "count": 4775,
      "max": [
        0.6827474236488342,
        0.8964971899986267
      ],
      "min": [
        0.31296998262405396,
        0.09442463517189026
      ],
      "type": "VEC2"
    },
    {
      "bufferView": 0,
      "byteOffset": 1045152,
      "componentType": 5125,
      "count": 28416,
      "type": "SCALAR"
    },
    {
      "bufferView": 2,
      "byteOffset": 1271088,
      "componentType": 5126,
      "count": 339,
      "max": [
        0.026680251583456993,
        0.01899881660938263,
        0.05637827515602112
      ],
      "min": [
        -0.0016804835759103298,
        -6.817455869168043e-06,
        0.004116641357541084
      ],
      "type": "VEC3"
    },
    {
      "bufferView": 2,
      "byteOffset": 1275156,
      "componentType": 5126,
      "count": 339,
      "max": [
        0.9999890923500061,
        1.0,
        0.9999977350234985
      ],
      "min": [
        -0.9999890923500061,
        -7.037890463834628e-05,
        -1.0
      ],
      "type": "VEC3"
    },
    {
      "bufferView": 1,
      "byteOffset": 423696,
      "componentType": 5126,
      "count": 339,
      "max": [
        0.8488595485687256,
        0.9395336508750916
      ],
      "min": [
        0.1519789695739746,
        0.05121369659900665
      ],
      "type": "VEC2"
    },
    {
      "bufferView": 0,
      "byteOffset": 1158816,
      "componentType": 5125,
      "count": 1536,
      "type": "SCALAR"
    },
    {
      "bufferView": 2,
      "byteOffset": 1279224,
      "componentType": 5126,
      "count": 7067,
      "max": [
        0.6216647624969482,
        0.5209048986434937,
        0.16550299525260925
      ],
      "min": [
        -0.4216647744178772,
        -0.1279832124710083,
        -0.24856716394424438
      ],
      "type": "VEC3"
    },
    {
      "bufferView": 2,
      "byteOffset": 1364028,
      "componentType": 5126,
      "count": 7067,
      "max": [
        1.0,
        0.999980092048645,
        0.9994755387306213
      ],
      "min": [
        -1.0,
        -0.9999984502792358,
        -0.9998813271522522
      ],
      "type": "VEC3"
    },
    {
      "bufferView": 1,
      "byteOffset": 426408,
      "componentType": 5126,
      "count": 7067,
      "max": [
        0.9610602259635925,
        0.9703340530395508
      ],
      "min": [
        0.03457500785589218,
        -0.0010663686553016305
      ],
      "type": "VEC2"
    },
    {
      "bufferView": 0,
      "byteOffset": 1164960,
      "componentType": 5125,
      "count": 36096,
      "type": "SCALAR"
    },
    {
      "bufferView": 2,
      "byteOffset": 1448832,
      "componentType": 5126,
      "count": 3065,
      "max": [
        0.6464213728904724,
        0.5323343873023987,
        0.2031421661376953
      ],
      "min": [
        -0.44642162322998047,
        -0.11804181337356567,
        0.0036029017064720392
      ],
      "type": "VEC3"
    },
    {
      "bufferView": 2,
      "byteOffset": 1485612,
      "componentType": 5126,
      "count": 3065,
      "max": [
        0.9999056458473206,
        0.9999209046363831,
        0.9999986886978149
      ],
      "min": [
        -0.9999056458473206,
        -0.9999996423721313,
        -1.0
      ],
      "type": "VEC3"
    },
    {
      "bufferView": 1,
      "byteOffset": 482944,
      "componentType": 5126,
      "count": 3065,
      "max": [
        0.8678714632987976,
        0.9179133772850037
      ],
      "min": [
        0.15973453223705292,
        0.08816375583410263
      ],
      "type": "VEC2"
    },
    {
      "bufferView": 0,
      "byteOffset": 1309344,
      "componentType": 5125,
      "count": 17664,
      "type": "SCALAR"
    },
    {
      "bufferView": 2,
      "byteOffset": 1522392,
      "componentType": 5126,
      "count": 2311,
      "max": [
        0.6034802794456482,
        0.49566373229026794,
        0.19259047508239746
      ],
      "min": [
        -0.4034804105758667,
        -0.0983692854642868,
        0.05690675228834152
      ],
      "type": "VEC3"
    },
    {
      "bufferView": 2,
      "byteOffset": 1550124,
      "componentType": 5126,
      "count": 2311,
      "max": [
        0.9513269066810608,
        0.9984416365623474,
        0.999976634979248
      ],
      "min": [
        -0.9513283371925354,
        -0.9838243126869202,
        -0.9877806305885315
      ],
      "type": "VEC3"
    },
    {
      "bufferView": 1,
      "byteOffset": 507464,
      "componentType": 5126,
      "count": 2311,
      "max": [
        0.8453742265701294,
        0.9440829753875732
      ],
      "min": [
        0.15161022543907166,
        0.05717974528670311
      ],
      "type": "VEC2"
    },
    {
      "bufferView": 0,
      "byteOffset": 1380000,
      "componentType": 5125,
      "count": 13056,
      "type": "SCALAR"
    }
  ],
  "asset": {
    "extras": {
      "author": "prototypus (https://sketchfab.com/prototypus)",
      "license": "CC-BY-4.0 (http://creativecommons.org/licenses/by/4.0/)",
      "source": "https://sketchfab.com/3d-models/quest3-test-model-2c23abec621f459cab991171ac7239fa",
      "title": "quest3_test_model"
    },
    "generator": "Sketchfab-16.68.0",
    "version": "2.0"
  },
  "bufferViews": [
    {
      "buffer": 0,
      "byteLength": 1432224,
      "name": "floatBufferViews",
      "target": 34963
    },
    {
      "buffer": 0,
      "byteLength": 525952,
      "byteOffset": 1432224,
      "byteStride": 8,
      "name": "floatBufferViews",
      "target": 34962
    },
    {
      "buffer": 0,
      "byteLength": 1577856,
      "byteOffset": 1958176,
      "byteStride": 12,
      "name": "floatBufferViews",
      "target": 34962
    }
  ],
  "buffers": [
    {
      "byteLength": 3536032,
      "uri": "scene.bin"
    }
  ],
  "extensionsUsed": [
    "KHR_materials_specular",
    "KHR_materials_transmission"
  ],
  "materials": [
    {
      "alphaMode": "BLEND",
      "doubleSided": true,
      "extensions": {
        "KHR_materials_specular": {
          "specularColorFactor": [
            1.0,
            1.0,
            1.0
          ],
          "specularFactor": 1.0
        }
      },
      "name": "Glossy_676767C9_r0.08_m1.00_hs-103.4",
      "pbrMetallicRoughness": {
        "baseColorFactor": [
          0.0,
          0.0,
          0.0,
          0.8030500664382977
        ],
        "metallicFactor": 0.0,
        "roughnessFactor": 0.0
      }
    },
    {
      "doubleSided": true,
      "name": "Phong_343941_r0.03",
      "pbrMetallicRoughness": {
        "baseColorFactor": [
          0.0046469190529400605,
          0.0046469190529400605,
          0.0046469190529400605,
          1.0
        ],
        "metallicFactor": 0.0,
        "roughnessFactor": 0.4102839170557473
      }
    },
    {
      "doubleSided": true,
      "name": "Reflective_A9A9A9_r0.29_m1.00",
      "pbrMetallicRoughness": {
        "baseColorFactor": [
          0.5847322277553607,
          0.5847322277553607,
          0.5847322277553607,
          1.0
        ],
        "roughnessFactor": 0.4163791737270057
      }
    },
    {
      "doubleSided": true,
      "name": "Phong_A9A9A9_r0.32",
      "pbrMetallicRoughness": {
        "baseColorFactor": [
          0.662745,
          0.662745,
          0.662745,
          1.0
        ],
        "metallicFactor": 0.0,
        "roughnessFactor": 0.7915300430211544
      }
    },
    {
      "doubleSided": true,
      "name": "Phong_8D8D8D_r0.32",
      "pbrMetallicRoughness": {
        "baseColorFactor": [
          0.457520576062708,
          0.457520576062708,
          0.457520576062708,
          1.0
        ],
        "metallicFactor": 0.0,
        "roughnessFactor": 0.7915300430211544
      }
    },
    {
      "doubleSided": true,
      "name": "Phong_5B4B48_r0.32",
      "pbrMetallicRoughness": {
        "baseColorFactor": [
          0.356863,
          0.294118,
          0.282353,
          1.0
        ],
        "metallicFactor": 0.0,
        "roughnessFactor": 0.7915300430211544
      }
    },
    {
      "doubleSided": true,
      "name": "Phong_707981_r0.32",
      "pbrMetallicRoughness": {
        "baseColorFactor": [
          0.439216,
          0.47451,
          0.505882,
          1.0
        ],
        "metallicFactor": 0.0,
        "roughnessFactor": 0.7915300430211544
      }
    },
    {
      "doubleSided": true,
      "name": "Phong_BEBEBE_r0.32",
      "pbrMetallicRoughness": {
        "baseColorFactor": [
          0.5847263077373188,
          0.5847263077373188,
          0.5847263077373188,
          1.0
        ],
        "metallicFactor": 0.0,
        "roughnessFactor": 0.22742621691799447
      }
    },
    {
      "alphaMode": "BLEND",
      "doubleSided": true,
      "extensions": {
        "KHR_materials_specular": {
          "specularColorFactor": [
            1.0,
            1.0,
            1.0
          ],
          "specularFactor": 1.0
        },
        "KHR_materials_transmission": {
          "transmissionFactor": 0.020187490095207927
        }
      },
      "name": "Glossy_3F0417F4_m0.09_hs-120.3",
      "pbrMetallicRoughness": {
        "baseColorFactor": [
          0.00020154510233884491,
          0.0002987035471086185,
          0.0023973259541357336,
          0.9798125099047921
        ],
        "metallicFactor": 0.0,
        "roughnessFactor": 0.04456851678024165
      }
    },
    {
      "doubleSided": true,
      "name": "Phong_1C1C1CF4_r0.32",
      "pbrMetallicRoughness": {
        "baseColorFactor": [
          0.0,
          0.0,
          0.0,
          1.0
        ],
        "metallicFactor": 0.0,
        "roughnessFactor": 0.7577135473174775
      }
    },
    {
      "doubleSided": true,
      "name": "Phong_3F3F3F_r0.32",
      "pbrMetallicRoughness": {
        "baseColorFactor": [
          0.6128662499164927,
          0.6128662499164927,
          0.6128662499164927,
          1.0
        ],
        "metallicFactor": 0.0,
        "roughnessFactor": 0.20304519023296075
      }
    },
    {
      "doubleSided": true,
      "name": "Phong_ADADAD_r0.32",
      "pbrMetallicRoughness": {
        "baseColorFactor": [
          0.678431,
          0.678431,
          0.678431,
          1.0
        ],
        "metallicFactor": 0.0,
        "roughnessFactor": 0.7915300430211544
      }
    },
    {
      "alphaMode": "BLEND",
      "doubleSided": true,
      "extensions": {
        "KHR_materials_transmission": {
          "transmissionFactor": 0.22742621691799447
        }
      },
      "name": "Glossy_282528C1_r0.40_m1.00_hs-15.5",
      "pbrMetallicRoughness": {
        "baseColorFactor": [
          0.156863,
          0.145098,
          0.156863,
          0.7725737830820055
        ],
        "metallicFactor": 0.0,
        "roughnessFactor": 0.0
      }
    },
    {
      "doubleSided": true,
      "name": "Phong_3F3F3F_r0.26",
      "pbrMetallicRoughness": {
        "baseColorFactor": [
          0.012518225358363446,
          0.012518225358363446,
          0.012518225358363446,
          1.0
        ],
        "metallicFactor": 0.0,
        "roughnessFactor": 0.6906657239336349
      }
    },
    {
      "doubleSided": true,
      "name": "Reflective_3E3A39_r0.11_m1.00",
      "pbrMetallicRoughness": {
        "baseColorFactor": [
          0.0013699005452204192,
          0.00018790671195501325,
          0.00018790671195501325,
          1.0
        ],
        "metallicFactor": 0.0,
        "roughnessFactor": 0.9312186035514913
      }
    },
    {
      "doubleSided": true,
      "name": "Phong_282828_r0.00",
      "pbrMetallicRoughness": {
        "baseColorFactor": [
          0.03421842137872357,
          0.0322499442473385,
          0.0322499442473385,
          1.0
        ],
        "metallicFactor": 0.0,
        "roughnessFactor": 0.36152186368567985
      }
    }
  ],
  "meshes": [
    {
      "name": "s.0056_Glossy_676767C9_r0.08_m1.00_hs-103.4_0",
      "primitives": [
        {
          "attributes": {
            "NORMAL": 1,
            "POSITION": 0,
            "TEXCOORD_0": 2
          },
          "indices": 3,
          "material": 0,
          "mode": 4
        }
      ]
    },
    {
      "name": "s.0057_Thicken_Phong_343941_r0.03_0",
      "primitives": [
        {
          "attributes": {
            "NORMAL": 5,
            "POSITION": 4,
            "TEXCOORD_0": 6
          },
          "indices": 7,
          "material": 1,
          "mode": 4
        }
      ]
    },
    {
      "name": "s.0071_Glossy_676767C9_r0.08_m1.00_hs-103.4_0",
      "primitives": [
        {
          "attributes": {
            "NORMAL": 9,
            "POSITION": 8,
            "TEXCOORD_0": 10
          },
          "indices": 11,
          "material": 0,
          "mode": 4
        }
      ]
    },
    {
      "name": "s.0085_Reflective_A9A9A9_r0.29_m1.00_0",
      "primitives": [
        {
          "attributes": {
            "NORMAL": 13,
            "POSITION": 12,
            "TEXCOORD_0": 14
          },
          "indices": 15,
          "material": 2,
          "mode": 4
        }
      ]
    },
    {
      "name": "s.0086_Phong_A9A9A9_r0.32_0",
      "primitives": [
        {
          "attributes": {
            "NORMAL": 17,
            "POSITION": 16,
            "TEXCOORD_0": 18
          },
          "indices": 19,
          "material": 3,
          "mode": 4
        }
      ]
    },
    {
      "name": "s.0091_Phong_8D8D8D_r0.32_0",
      "primitives": [
        {
          "attributes": {
            "NORMAL": 21,
            "POSITION": 20,
            "TEXCOORD_0": 22
          },
          "indices": 23,
          "material": 4,
          "mode": 4
        }
      ]
    },
    {
      "name": "r.0095_Phong_5B4B48_r0.32_0",
      "primitives": [
        {
          "attributes": {
            "NORMAL": 25,
            "POSITION": 24,
            "TEXCOORD_0": 26
          },
          "indices": 27,
          "material": 5,
          "mode": 4
        }
      ]
    },
    {
      "name": "s.0099_Phong_707981_r0.32_0",
      "primitives": [
        {
          "attributes": {
            "NORMAL": 29,
            "POSITION": 28,
            "TEXCOORD_0": 30
          },
          "indices": 31,
          "material": 6,
          "mode": 4
        }
      ]
    },
    {
      "name": "s.0108_Phong_BEBEBE_r0.32_0",
      "primitives": [
        {
          "attributes": {
            "NORMAL": 33,
            "POSITION": 32,
            "TEXCOORD_0": 34
          },
          "indices": 35,
          "material": 7,
          "mode": 4
        }
      ]
    },
    {
      "name": "s.0118_Glossy_3F0417F4_m0.09_hs-120.3_0",
      "primitives": [
        {
          "attributes": {
            "NORMAL": 37,
            "POSITION": 36,
            "TEXCOORD_0": 38
          },
          "indices": 39,
          "material": 8,
          "mode": 4
        }
      ]
    },
    {
      "name": "s.0125_Phong_1C1C1CF4_r0.32_0",
      "primitives": [
        {
          "attributes": {
            "NORMAL": 41,
            "POSITION": 40,
            "TEXCOORD_0": 42
          },
          "indices": 43,
          "material": 9,
          "mode": 4
        }
      ]
    },
    {
      "name": "s.0135_Phong_A9A9A9_r0.32_0",
      "primitives": [
        {
          "attributes": {
            "NORMAL": 45,
            "POSITION": 44,
            "TEXCOORD_0": 46
          },
          "indices": 47,
          "material": 3,
          "mode": 4
        }
      ]
    },
    {
      "name": "s.0136_Phong_A9A9A9_r0.32_0",
      "primitives": [
        {
          "attributes": {
            "NORMAL": 49,
            "POSITION": 48,
            "TEXCOORD_0": 50
          },
          "indices": 51,
          "material": 3,
          "mode": 4
        }
      ]
    },
    {
      "name": "s.0156_Phong_3F3F3F_r0.32_0",
      "primitives": [
        {
          "attributes": {
            "NORMAL": 53,
            "POSITION": 52,
            "TEXCOORD_0": 54
          },
          "indices": 55,
          "material": 10,
          "mode": 4
        }
      ]
    },
    {
      "name": "s.0160_Phong_3F3F3F_r0.32_0",
      "primitives": [
        {
          "attributes": {
            "NORMAL": 57,
            "POSITION": 56,
            "TEXCOORD_0": 58
          },
          "indices": 59,
          "material": 10,
          "mode": 4
        }
      ]
    },
    {
      "name": "s.0164_Phong_ADADAD_r0.32_0",
      "primitives": [
        {
          "attributes": {
            "NORMAL": 61,
            "POSITION": 60,
            "TEXCOORD_0": 62
          },
          "indices": 63,
          "material": 11,
          "mode": 4
        }
      ]
    },
    {
      "name": "s.0167_Phong_3F3F3F_r0.32_0",
      "primitives": [
        {
          "attributes": {
            "NORMAL": 65,
            "POSITION": 64,
            "TEXCOORD_0": 66
          },
          "indices": 67,
          "material": 10,
          "mode": 4
        }
      ]
    },
    {
      "name": "s.0170_Phong_3F3F3F_r0.32_0",
      "primitives": [
        {
          "attributes": {
            "NORMAL": 69,
            "POSITION": 68,
            "TEXCOORD_0": 70
          },
          "indices": 71,
          "material": 10,
          "mode": 4
        }
      ]
    },
    {
      "name": "s.0171_Phong_3F3F3F_r0.32_0",
      "primitives": [
        {
          "attributes": {
            "NORMAL": 73,
            "POSITION": 72,
            "TEXCOORD_0": 74
          },
          "indices": 75,
          "material": 10,
          "mode": 4
        }
      ]
    },
    {
      "name": "s.0172_Phong_3F3F3F_r0.32_0",
      "primitives": [
        {
          "attributes": {
            "NORMAL": 77,
            "POSITION": 76,
            "TEXCOORD_0": 78
          },
          "indices": 79,
          "material": 10,
          "mode": 4
        }
      ]
    },
    {
      "name": "s.0173_Phong_ADADAD_r0.32_0",
      "primitives": [
        {
          "attributes": {
            "NORMAL": 81,
            "POSITION": 80,
            "TEXCOORD_0": 82
          },
          "indices": 83,
          "material": 11,
          "mode": 4
        }
      ]
    },
    {
      "name": "s.0176_Glossy_282528C1_r0.40_m1.00_hs-15.5_0",
      "primitives": [
        {
          "attributes": {
            "NORMAL": 85,
            "POSITION": 84,
            "TEXCOORD_0": 86
          },
          "indices": 87,
          "material": 12,
          "mode": 4
        }
      ]
    },
    {
      "name": "s.0182_Phong_BEBEBE_r0.32_0",
      "primitives": [
        {
          "attributes": {
            "NORMAL": 89,
            "POSITION": 88,
            "TEXCOORD_0": 90
          },
          "indices": 91,
          "material": 7,
          "mode": 4
        }
      ]
    },
    {
      "name": "s.0184_Phong_BEBEBE_r0.32_0",
      "primitives": [
        {
          "attributes": {
            "NORMAL": 93,
            "POSITION": 92,
            "TEXCOORD_0": 94
          },
          "indices": 95,
          "material": 7,
          "mode": 4
        }
      ]
    },
    {
      "name": "s.0186_Phong_3F3F3F_r0.26_0",
      "primitives": [
        {
          "attributes": {
            "NORMAL": 97,
            "POSITION": 96,
            "TEXCOORD_0": 98
          },
          "indices": 99,
          "material": 13,
          "mode": 4
        }
      ]
    },
    {
      "name": "s.0187_Phong_3F3F3F_r0.26_0",
      "primitives": [
        {
          "attributes": {
            "NORMAL": 101,
            "POSITION": 100,
            "TEXCOORD_0": 102
          },
          "indices": 103,
          "material": 13,
          "mode": 4
        }
      ]
    },
    {
      "name": "s.0188_Reflective_3E3A39_r0.11_m1.00_0",
      "primitives": [
        {
          "attributes": {
            "NORMAL": 105,
            "POSITION": 104,
            "TEXCOORD_0": 106
          },
          "indices": 107,
          "material": 14,
          "mode": 4
        }
      ]
    },
    {
      "name": "s.0190_Thicken_Phong_282828_r0.00_0",
      "primitives": [
        {
          "attributes": {
            "NORMAL": 109,
            "POSITION": 108,
            "TEXCOORD_0": 110
          },
          "indices": 111,
          "material": 15,
          "mode": 4
        }
      ]
    },
    {
      "name": "s.0191_Phong_BEBEBE_r0.32_0",
      "primitives": [
        {
          "attributes": {
            "NORMAL": 113,
            "POSITION": 112,
            "TEXCOORD_0": 114
          },
          "indices": 115,
          "material": 7,
          "mode": 4
        }
      ]
    },
    {
      "name": "s.0192_Phong_BEBEBE_r0.32_0",
      "primitives": [
        {
          "attributes": {
            "NORMAL": 117,
            "POSITION": 116,
            "TEXCOORD_0": 118
          },
          "indices": 119,
          "material": 7,
          "mode": 4
        }
      ]
    }
  ],
  "nodes": [
    {
      "children": [
        1
      ],
      "matrix": [
        -1.0,
        4.504636734104249e-32,
        -2.832769343193999e-16,
        0.0,
        -2.832769343193999e-16,
        -6.123234262925839e-17,
        1.0,
        0.0,
        2.770065955897755e-32,
        1.0,
        6.123234262925839e-17,
        0.0,
        0.0,
        0.0,
        0.0,
        1.0
      ],
      "name": "Sketchfab_model"
    },
    {
      "children": [
        2
      ],
      "matrix": [
        0.009999999776482582,
        0.0,
        0.0,
        0.0,
        0.0,
        0.0,
        0.009999999776482582,
        0.0,
        0.0,
        -0.009999999776482582,
        0.0,
        0.0,
        0.0,
        0.0,
        0.0,
        1.0
      ],
      "name": "9eecb1619d274a2297019110d5c8108f.fbx"
    },
    {
      "children": [
        3
      ],
      "name": "RootNode"
    },
    {
      "children": [
        4
      ],
      "matrix": [
        100.0,
        0.0,
        0.0,
        0.0,
        0.0,
        100.0,
        0.0,
        0.0,
        0.0,
        0.0,
        100.0,
        0.0,
        0.0,
        0.0,
        0.0,
        1.0
      ],
      "name": "quest3"
    },
    {
      "children": [
        5
      ],
      "name": "Meshes"
    },
    {
      "children": [
        6,
        8,
        10,
        12,
        14,
        16,
        18,
        20,
        22,
        24,
        26,
        28,
        30,
        32,
        34,
        36,
        38,
        40,
        42,
        44,
        46,
        48,
        50,
        52,
        54,
        56,
        58,
        60,
        62,
        64
      ],
      "name": "Layer 1"
    },
    {
      "children": [
        7
      ],
      "matrix": [
        1.00000011920924,
        2.980233526628218e-08,
        3.129244214861081e-07,
        0.0,
        -2.980231306182169e-08,
        0.9999999999999978,
        -5.960464588561209e-08,
        0.0,
        -3.1292442326246505e-07,
        5.9604643665165066e-08,
        1.0000001192092387,
        0.0,
        -0.09999990463256836,
        0.09999918937683105,
        -0.4247617721557617,
        1.0
      ],
      "name": "s.0056"
    },
    {
      "mesh": 0,
      "name": "s.0056_Glossy_676767C9_r0.08_m1.00_hs-103.4_0"
    },
    {
      "children": [
        9
      ],
      "matrix": [
        1.0000001192092665,
        -1.1920926556996475e-07,
        1.7881394320794405e-07,
        0.0,
        1.1920929932073148e-07,
        0.9999999999999569,
        -2.6822083398769294e-07,
        0.0,
        -1.7881391123352772e-07,
        2.682208872783867e-07,
        1.0000001192092376,
        0.0,
        -0.09999990463256836,
        0.09999942779541016,
        -0.38155078887939453,
        1.0
      ],
      "name": "s.0057_Thicken"
    },
    {
      "mesh": 1,
      "name": "s.0057_Thicken_Phong_343941_r0.03_0"
    },
    {
      "children": [
        11
      ],
      "matrix": [
        0.9999999999999929,
        -2.3092660723303734e-14,
        -1.192093321833405e-07,
        0.0,
        2.3092639456194728e-14,
        -0.9999995231627667,
        3.874301476416814e-07,
        0.0,
        -1.1920927533990131e-07,
        -3.874301476416814e-07,
        -0.9999995231627596,
        0.0,
        -0.22500038146972656,
        0.2796649932861328,
        -0.6311159133911133,
        1.0
      ],
      "name": "s.0071"
    },
    {
      "mesh": 2,
      "name": "s.0071_Glossy_676767C9_r0.08_m1.00_hs-103.4_0"
    },
    {
      "children": [
        13
      ],
      "matrix": [
        0.7007813661394873,
        -0.11404179514710497,
        -4.7296397869203584e-08,
        0.0,
        0.11404179514710876,
        0.7007813661394857,
        5.986276228035129e-08,
        0.0,
        3.706700848640468e-08,
        -6.668235479573781e-08,
        0.7100000381469685,
        0.0,
        -0.5419433116912842,
        0.38657450675964355,
        -0.5208616256713867,
        1.0
      ],
      "name": "s.0085"
    },
    {
      "mesh": 3,
      "name": "s.0085_Reflective_A9A9A9_r0.29_m1.00_0"
    },
    {
      "children": [
        15
      ],
      "matrix": [
        0.7482517688901676,
        -0.12176690059028551,
        -5.050022029370083e-08,
        0.0,
        0.12176690059028955,
        0.748251768890166,
        6.391782078008156e-08,
        0.0,
        3.9577899766670646e-08,
        -7.119936736408765e-08,
        0.7580949068069415,
        0.0,
        -0.5380687713623047,
        0.38652801513671875,
        -0.5206632614135742,
        1.0
      ],
      "name": "s.0086"
    },
    {
      "mesh": 4,
      "name": "s.0086_Phong_A9A9A9_r0.32_0"
    },
    {
      "children": [
        17
      ],
      "matrix": [
        0.9870160374929271,
        -0.16062247710174735,
        2.2954942686353465e-07,
        0.0,
        0.1606224771018033,
        0.9870160374929129,
        -2.505399705336575e-07,
        0.0,
        -1.8632659281963956e-07,
        2.8415773263560405e-07,
        1.0000001192092318,
        0.0,
        -0.533233642578125,
        0.3814280033111572,
        -0.5235319137573242,
        1.0
      ],
      "name": "s.0091"
    },
    {
      "mesh": 5,
      "name": "s.0091_Phong_8D8D8D_r0.32_0"
    },
    {
      "children": [
        19
      ],
      "matrix": [
        -0.08759819656477191,
        -0.3772853285633968,
        -1.1844054820223657,
        0.0,
        0.08694858081494325,
        -1.186294525095373,
        0.37145638675117443,
        0.0,
        -1.240000206524573,
        -0.056529886990879796,
        0.10971722167024614,
        0.0,
        -0.6155929565429688,
        0.33350682258605957,
        -0.024782180786132813,
        1.0
      ],
      "name": "r.0095"
    },
    {
      "mesh": 6,
      "name": "r.0095_Phong_5B4B48_r0.32_0"
    },
    {
      "children": [
        21
      ],
      "matrix": [
        0.030845333269944965,
        -0.014770753403240347,
        -0.9994149643917088,
        0.0,
        0.19595914169177406,
        -0.9803969706406175,
        0.020537642175374515,
        0.0,
        -0.9801267599505882,
        -0.1964779890335925,
        -0.02734620713721458,
        0.0,
        0.47262001037597656,
        0.35878729820251465,
        -0.5454130172729492,
        1.0
      ],
      "name": "s.0099"
    },
    {
      "mesh": 7,
      "name": "s.0099_Phong_707981_r0.32_0"
    },
    {
      "children": [
        23
      ],
      "matrix": [
        -1.1221667528152326,
        1.2112324990087322e-07,
        -1.3009713132376305e-07,
        0.0,
        -1.4502416119787912e-07,
        -1.0987727115555341,
        0.22794023222062576,
        0.0,
        -1.0278181941874467e-07,
        0.22794028064943708,
        1.098772945003754,
        0.0,
        -0.21102237701416016,
        0.19143152236938477,
        -0.7775726318359375,
        1.0
      ],
      "name": "s.0108"
    },
    {
      "mesh": 8,
      "name": "s.0108_Phong_BEBEBE_r0.32_0"
    },
    {
      "children": [
        25
      ],
      "matrix": [
        -1.1221663951873417,
        6.229091969221069e-08,
        2.793669615633005e-07,
        0.0,
        -4.245927999677391e-09,
        -1.0987721617232213,
        0.22793994827439978,
        0.0,
        2.8619597200423216e-07,
        0.22794014198944235,
        1.098773095516086,
        0.0,
        0.16102218627929688,
        0.18988990783691406,
        -0.7812252044677734,
        1.0
      ],
      "name": "s.0118"
    },
    {
      "mesh": 9,
      "name": "s.0118_Glossy_3F0417F4_m0.09_hs-120.3_0"
    },
    {
      "children": [
        27
      ],
      "matrix": [
        1.0000032186507417,
        -3.7386776739048213e-07,
        -1.122585422316685e-07,
        0.0,
        1.7129410172305334e-07,
        0.16186504341361352,
        0.9868160449715757,
        0.0,
        -3.5076684875074596e-07,
        -0.9868160449715198,
        0.16186504341366525,
        0.0,
        0.0,
        0.23494672775268555,
        -0.8462400436401367,
        1.0
      ],
      "name": "s.0125"
    },
    {
      "mesh": 10,
      "name": "s.0125_Phong_1C1C1CF4_r0.32_0"
    },
    {
      "children": [
        29
      ],
      "matrix": [
        -0.03369525839737798,
        -0.07295161206439689,
        1.3551381167948593,
        0.0,
        0.12182233026782581,
        -1.3502454965659967,
        -0.06965913628309989,
        0.0,
        1.351621458814687,
        0.11987970901749048,
        0.040061342577567445,
        0.0,
        -0.37902307510375977,
        0.27042460441589355,
        -0.6235103607177734,
        1.0
      ],
      "name": "s.0135"
    },
    {
      "mesh": 11,
      "name": "s.0135_Phong_A9A9A9_r0.32_0"
    },
    {
      "children": [
        31
      ],
      "matrix": [
        0.008417804460151657,
        -0.04205306378385835,
        1.7874931940661796,
        0.0,
        0.4741872540612599,
        -1.7234514918518815,
        -0.042779480979990715,
        0.0,
        1.7239623693381751,
        0.4742523875563739,
        0.003038773965594619,
        0.0,
        -0.31844377517700195,
        0.23477482795715332,
        -0.6307344436645508,
        1.0
      ],
      "name": "s.0136"
    },
    {
      "mesh": 12,
      "name": "s.0136_Phong_A9A9A9_r0.32_0"
    },
    {
      "children": [
        33
      ],
      "matrix": [
        -0.035746445305155354,
        0.01919262636853236,
        -0.8820571771192791,
        0.0,
        -0.3060101135221342,
        -0.8282492557017552,
        -0.005620389298397023,
        0.0,
        -0.827496760127644,
        0.30545942355114897,
        0.04018179000460377,
        0.0,
        0.4287877082824707,
        0.18132925033569336,
        -0.6572418212890625,
        1.0
      ],
      "name": "s.0156"
    },
    {
      "mesh": 13,
      "name": "s.0156_Phong_3F3F3F_r0.32_0"
    },
    {
      "children": [
        35
      ],
      "matrix": [
        1.1704842282149879,
        0.10802939236903564,
        0.09929853591986287,
        0.0,
        -0.10841421349146382,
        1.174653240605179,
        5.154073459451803e-07,
        0.0,
        -0.09887824414136133,
        -0.009126449014555926,
        1.175458922342841,
        0.0,
        0.31420373916625977,
        0.0297238826751709,
        -0.6695833206176758,
        1.0
      ],
      "name": "s.0160"
    },
    {
      "mesh": 14,
      "name": "s.0160_Phong_3F3F3F_r0.32_0"
    },
    {
      "children": [
        37
      ],
      "matrix": [
        0.9999999999999889,
        -1.1920929487985068e-07,
        -8.940696005765777e-08,
        0.0,
        1.1920928422170966e-07,
        0.9999999999999858,
        -1.1920929487985068e-07,
        0.0,
        8.940697426851249e-08,
        1.1920928422170966e-07,
        0.9999999999999889,
        0.0,
        -0.2665064334869385,
        0.3749992847442627,
        0.5716934204101563,
        1.0
      ],
      "name": "s.0164"
    },
    {
      "mesh": 15,
      "name": "s.0164_Phong_ADADAD_r0.32_0"
    },
    {
      "children": [
        39
      ],
      "matrix": [
        1.1084154069969374,
        -0.027981037880895634,
        -0.09366500451839073,
        0.0,
        0.028080755696228178,
        1.112363246375481,
        6.845637629338085e-07,
        0.0,
        0.09363514652256028,
        -0.002364429699854085,
        1.1087684111372544,
        0.0,
        -0.21487760543823242,
        0.019788742065429688,
        -0.6713457107543945,
        1.0
      ],
      "name": "s.0167"
    },
    {
      "mesh": 16,
      "name": "s.0167_Phong_3F3F3F_r0.32_0"
    },
    {
      "children": [
        41
      ],
      "matrix": [
        -0.6682375682231048,
        -0.01699069454336078,
        0.6573027840601188,
        0.0,
        0.6567662438460925,
        -0.06217847906396279,
        0.6660848436232164,
        0.0,
        0.031523555931140736,
        0.9352658628749388,
        0.05622377060665434,
        0.0,
        0.1231989860534668,
        0.05796003341674805,
        -0.6801395416259766,
        1.0
      ],
      "name": "s.0170"
    },
    {
      "mesh": 17,
      "name": "s.0170_Phong_3F3F3F_r0.32_0"
    },
    {
      "children": [
        43
      ],
      "matrix": [
        -0.6682376063789423,
        -0.016990641712323507,
        0.6573024065882929,
        0.0,
        0.6567659298030136,
        -0.06217900495249268,
        0.6660849363995432,
        0.0,
        0.03152394348604121,
        0.9352657093410338,
        0.056224119585676066,
        0.0,
        0.1533641815185547,
        0.05795907974243164,
        -0.6777515411376953,
        1.0
      ],
      "name": "s.0171"
    },
    {
      "mesh": 18,
      "name": "s.0171_Phong_3F3F3F_r0.32_0"
    },
    {
      "children": [
        45
      ],
      "matrix": [
        -0.6682375039244098,
        -0.016990755928181004,
        0.6573021677480098,
        0.0,
        0.6567658312560357,
        -0.06217877692032144,
        0.6660849709636958,
        0.0,
        0.031523694003661173,
        0.9352656626213663,
        0.05622404277732359,
        0.0,
        0.18352937698364258,
        0.057959794998168945,
        -0.6745004653930664,
        1.0
      ],
      "name": "s.0172"
    },
    {
      "mesh": 19,
      "name": "s.0172_Phong_3F3F3F_r0.32_0"
    },
    {
      "children": [
        47
      ],
      "matrix": [
        -0.23159834563620463,
        -0.35950743501200594,
        1.7361128560402153,
        0.0,
        1.078401687906248,
        -1.4182975824677153,
        -0.14983615736804048,
        0.0,
        1.4072606257905251,
        1.0276946380277323,
        0.4005402607818077,
        0.0,
        -0.31119632720947266,
        0.20937514305114746,
        -0.6077032089233398,
        1.0
      ],
      "name": "s.0173"
    },
    {
      "mesh": 20,
      "name": "s.0173_Phong_ADADAD_r0.32_0"
    },
    {
      "children": [
        49
      ],
      "matrix": [
        -0.3820009378141615,
        0.3092988705454218,
        0.6336889242219754,
        0.0,
        0.2787733730403706,
        -0.5957457225514717,
        0.4588294949504692,
        0.0,
        0.6476979634500245,
        0.438831704189616,
        0.17625537503277638,
        0.0,
        -0.40924739837646484,
        0.1357862949371338,
        -0.6342430114746094,
        1.0
      ],
      "name": "s.0176"
    },
    {
      "mesh": 21,
      "name": "s.0176_Glossy_282528C1_r0.40_m1.00_hs-15.5_0"
    },
    {
      "children": [
        51
      ],
      "matrix": [
        3.708144018157384e-14,
        -0.9999997615813805,
        2.844911241796218e-07,
        0.0,
        0.9999997615813863,
        -3.774757383753026e-14,
        -2.634177390220846e-07,
        0.0,
        2.6341778612485814e-07,
        2.84491175050611e-07,
        0.9999999403952801,
        0.0,
        -2.384185791015625e-07,
        1.0611400604248047,
        -0.088775634765625,
        1.0
      ],
      "name": "s.0182"
    },
    {
      "mesh": 22,
      "name": "s.0182_Phong_BEBEBE_r0.32_0"
    },
    {
      "children": [
        53
      ],
      "matrix": [
        0.9999999999999565,
        2.0861624117073923e-07,
        -2.0861627225698381e-07,
        0.0,
        -2.0861627225698392e-07,
        0.9999999999999671,
        -1.490115901781012e-07,
        0.0,
        2.0861624117073913e-07,
        1.4901163369884377e-07,
        0.9999999999999671,
        0.0,
        -0.5359766483306885,
        0.3749997615814209,
        -0.07676029205322266,
        1.0
      ],
      "name": "s.0184"
    },
    {
      "mesh": 23,
      "name": "s.0184_Phong_BEBEBE_r0.32_0"
    },
    {
      "children": [
        55
      ],
      "matrix": [
        0.9999999999999871,
        -5.9604640334498096e-08,
        1.4901161371483232e-07,
        0.0,
        5.960464921628229e-08,
        0.9999999999999964,
        -5.9604640334498096e-08,
        0.0,
        -1.4901161016211864e-07,
        5.960464921628229e-08,
        0.9999999999999871,
        0.0,
        -0.10000014305114746,
        0.09999942779541016,
        -0.4229707717895508,
        1.0
      ],
      "name": "s.0186"
    },
    {
      "mesh": 24,
      "name": "s.0186_Phong_3F3F3F_r0.26_0"
    },
    {
      "children": [
        57
      ],
      "matrix": [
        0.9999999999999871,
        -5.9604640334498096e-08,
        1.4901161371483232e-07,
        0.0,
        5.960464921628229e-08,
        0.9999999999999964,
        -5.9604640334498096e-08,
        0.0,
        -1.4901161016211864e-07,
        5.960464921628229e-08,
        0.9999999999999871,
        0.0,
        -0.10000014305114746,
        0.10000014305114746,
        -0.4426736831665039,
        1.0
      ],
      "name": "s.0187"
    },
    {
      "mesh": 25,
      "name": "s.0187_Phong_3F3F3F_r0.26_0"
    },
    {
      "children": [
        59
      ],
      "matrix": [
        0.9999999999999978,
        6.519186366469873e-08,
        -1.3817177754151719e-08,
        0.0,
        -2.806136521336482e-08,
        0.22387614444364234,
        -0.9746174194632538,
        0.0,
        -6.044378945219698e-08,
        0.974617419463252,
        0.22387614444364368,
        0.0,
        -0.012499809265136719,
        0.3861415386199951,
        -0.5516290664672852,
        1.0
      ],
      "name": "s.0188"
    },
    {
      "mesh": 26,
      "name": "s.0188_Reflective_3E3A39_r0.11_m1.00_0"
    },
    {
      "children": [
        61
      ],
      "matrix": [
        1.0000001192092873,
        -5.960465276899634e-08,
        -2.9802322387694833e-08,
        0.0,
        5.9604643887212146e-08,
        0.9999999999999964,
        -5.960464566356887e-08,
        0.0,
        2.980232594040893e-08,
        5.960465099263939e-08,
        1.0000001192092873,
        0.0,
        -0.10000038146972656,
        0.09999966621398926,
        -0.4639625549316406,
        1.0
      ],
      "name": "s.0190_Thicken"
    },
    {
      "mesh": 27,
      "name": "s.0190_Thicken_Phong_282828_r0.00_0"
    },
    {
      "children": [
        63
      ],
      "matrix": [
        0.9999999999999978,
        -5.960464566356887e-08,
        -2.9802318834981577e-08,
        0.0,
        5.9604643887212146e-08,
        0.9999999999999964,
        -5.960464566356887e-08,
        0.0,
        2.9802322387695256e-08,
        5.9604643887212146e-08,
        0.9999999999999978,
        0.0,
        -0.10000014305114746,
        0.10000014305114746,
        -0.7662563323974609,
        1.0
      ],
      "name": "s.0191"
    },
    {
      "mesh": 28,
      "name": "s.0191_Phong_BEBEBE_r0.32_0"
    },
    {
      "children": [
        65
      ],
      "matrix": [
        0.9999999403953507,
        -5.96046456635684e-08,
        -7.450579797563232e-08,
        0.0,
        5.9604633229071314e-08,
        0.9999998807907016,
        -1.1920927756037155e-07,
        0.0,
        7.450580952195156e-08,
        1.1920928733033443e-07,
        0.9999999999999901,
        0.0,
        -0.10000014305114746,
        0.09999918937683105,
        -0.8877840042114258,
        1.0
      ],
      "name": "s.0192"
    },
    {
      "mesh": 29,
      "name": "s.0192_Phong_BEBEBE_r0.32_0"
    }
  ],
  "scene": 0,
  "scenes": [
    {
      "name": "Sketchfab_Scene",
      "nodes": [
        0
      ]
    }
  ]
}
